<svg width="24" height="24" viewBox="0 0 24 24" fill="none" xmlns="http://www.w3.org/2000/svg">
  <path d="M12 12C14.21 12 16 10.21 16 8C16 5.79 14.21 4 12 4C9.79 4 8 5.79 8 8C8 10.21 9.79 12 12 12Z" fill="currentColor"/>
  <path d="M12 14C9.33 14 4 15.34 4 18V20H20V18C20 15.34 14.67 14 12 14Z" fill="currentColor"/>
  <circle cx="18" cy="8" r="3" fill="currentColor" opacity="0.7"/>
  <path d="M18 12.2C17.04 12.2 16.23 12.43 15.5 12.8C16.89 13.87 18 15.22 18 16.5V17H22V16.5C22 14.18 18.33 12.2 18 12.2Z" fill="currentColor" opacity="0.7"/>
</svg>