<svg width="24" height="24" viewBox="0 0 24 24" fill="none" xmlns="http://www.w3.org/2000/svg">
  <path d="M7 18C5.9 18 5 17.1 5 16S5.9 14 7 14 9 14.9 9 16 8.1 18 7 18Z" fill="currentColor"/>
  <path d="M1 2V4H3L6.6 11.59L5.25 14.04C5.09 14.32 5 14.65 5 15C5 16.1 5.9 17 7 17H19V15H7.42C7.28 15 7.17 14.89 7.17 14.75L7.2 14.63L8.1 13H15.55C16.3 13 16.96 12.59 17.3 11.97L20.88 5H5.21L4.27 3H1V2Z" fill="currentColor"/>
  <path d="M17 18C15.9 18 15 17.1 15 16S15.9 14 17 14 19 14.9 19 16 18.1 18 17 18Z" fill="currentColor"/>
  <path d="M12 2L13.09 8.26L22 9L13.09 9.74L12 16L10.91 9.74L2 9L10.91 8.26L12 2Z" fill="currentColor" opacity="0.6"/>
</svg>